<svg width="59" height="52" viewBox="0 0 59 52" fill="none" xmlns="http://www.w3.org/2000/svg">
<path d="M29.4999 24.2666C33.8463 24.2666 37.3666 21.164 37.3666 17.3333C37.3666 13.5026 33.8463 10.4 29.4999 10.4C25.1536 10.4 21.6333 13.5026 21.6333 17.3333C21.6333 21.164 25.1536 24.2666 29.4999 24.2666ZM29.4999 34.6666C24.2489 34.6666 11.7999 33.5226 11.7999 38.1333L16.7166 41.6C16.7166 42.5533 15.7333 39 19.6666 44.2L29.4999 46.8L43.2666 38.1333C44.3483 38.1333 44.2499 39.9533 44.2499 39L48.1833 38.1333C48.1833 33.5226 34.7509 34.6666 29.4999 34.6666Z" fill="#48BAEB"/>
<path d="M42.2155 0C37.1064 0 32.5721 2.06175 29.5 5.60547C26.4279 2.06175 21.8936 0 16.7845 0C12.3346 0.00550432 8.06854 1.81515 4.92201 5.03201C1.77547 8.24886 0.005384 12.6103 0 17.1596C0 35.9675 26.9086 50.9952 28.053 51.627C28.4977 51.8718 28.9949 52 29.5 52C30.0051 52 30.5023 51.8718 30.947 51.627C32.0914 50.9952 59 35.9675 59 17.1596C58.9946 12.6103 57.2245 8.24886 54.078 5.03201C50.9314 1.81515 46.6654 0.00550432 42.2155 0ZM40.8194 37.0127C37.2775 40.0854 33.4913 42.8509 29.5 45.2805C25.5087 42.8509 21.7225 40.0854 18.1806 37.0127C12.6697 32.1794 6.10345 24.8086 6.10345 17.1596C6.10345 14.2635 7.22877 11.486 9.23185 9.43817C11.2349 7.39032 13.9517 6.23985 16.7845 6.23985C21.3112 6.23985 25.1004 8.68379 26.6746 12.6201C26.9037 13.1939 27.2948 13.685 27.798 14.0306C28.3012 14.3763 28.8938 14.5609 29.5 14.5609C30.1062 14.5609 30.6987 14.3763 31.202 14.0306C31.7052 13.685 32.0963 13.1939 32.3254 12.6201C33.8996 8.68379 37.6888 6.23985 42.2155 6.23985C45.0483 6.23985 47.7651 7.39032 49.7681 9.43817C51.7712 11.486 52.8965 14.2635 52.8965 17.1596C52.8965 24.8086 46.3303 32.1794 40.8194 37.0127Z" fill="#48BAEB"/>
</svg>
