<svg width="27" height="26" viewBox="0 0 27 26" fill="none" xmlns="http://www.w3.org/2000/svg">
<path d="M13.4999 12.1333C15.4889 12.1333 17.0999 10.582 17.0999 8.66662C17.0999 6.75128 15.4889 5.19995 13.4999 5.19995C11.5109 5.19995 9.8999 6.75128 9.8999 8.66662C9.8999 10.582 11.5109 12.1333 13.4999 12.1333ZM13.4999 17.3333C11.0969 17.3333 5.3999 16.7613 5.3999 19.0666L7.6499 20.8C7.6499 21.2766 7.1999 19.5 8.9999 22.1L13.4999 23.4L19.7999 19.0666C20.2949 19.0666 20.2499 19.9766 20.2499 19.5L22.0499 19.0666C22.0499 16.7613 15.9029 17.3333 13.4999 17.3333Z" fill="#46BAEB"/>
<path d="M19.319 0C16.9809 0 14.9059 1.03088 13.5 2.80273C12.0941 1.03088 10.0191 0 7.68103 0C5.64465 0.00275216 3.69238 0.907576 2.25244 2.516C0.812505 4.12443 0.00246386 6.30514 0 8.57979C0 17.9838 12.3141 25.4976 12.8378 25.8135C13.0413 25.9359 13.2689 26 13.5 26C13.7312 26 13.9587 25.9359 14.1622 25.8135C14.6859 25.4976 27 17.9838 27 8.57979C26.9975 6.30514 26.1875 4.12443 24.7476 2.516C23.3076 0.907576 21.3553 0.00275216 19.319 0ZM18.68 18.5064C17.0592 20.0427 15.3265 21.4255 13.5 22.6403C11.6735 21.4255 9.94081 20.0427 8.31996 18.5064C5.79802 16.0897 2.7931 12.4043 2.7931 8.57979C2.7931 7.13175 3.30808 5.74301 4.22475 4.71908C5.14141 3.69516 6.38467 3.11993 7.68103 3.11993C9.75259 3.11993 11.4866 4.3419 12.207 6.31005C12.3119 6.59696 12.4909 6.84249 12.7211 7.01532C12.9514 7.18815 13.2226 7.28045 13.5 7.28045C13.7774 7.28045 14.0486 7.18815 14.2789 7.01532C14.5091 6.84249 14.6881 6.59696 14.793 6.31005C15.5134 4.3419 17.2474 3.11993 19.319 3.11993C20.6153 3.11993 21.8586 3.69516 22.7753 4.71908C23.6919 5.74301 24.2069 7.13175 24.2069 8.57979C24.2069 12.4043 21.202 16.0897 18.68 18.5064Z" fill="#46BAEB"/>
</svg>
