<svg width="160" height="138" viewBox="0 0 160 138" fill="none" xmlns="http://www.w3.org/2000/svg">
<path d="M8.71484 125.484V128.625H10.2383V129.562H8.71484V133.207H7.60156V125.484H8.71484ZM0.628906 128.824C0.617188 127.295 1.83594 126.217 3.41797 126.211C5.00586 126.217 6.20703 127.295 6.21875 128.824C6.20703 130.354 5.00586 131.443 3.41797 131.438C1.83594 131.443 0.617188 130.354 0.628906 128.824ZM1.71875 128.824C1.70703 129.803 2.45703 130.465 3.41797 130.465C4.39062 130.465 5.12305 129.803 5.12891 128.824C5.12305 127.846 4.39062 127.184 3.41797 127.184C2.45703 127.184 1.70703 127.846 1.71875 128.824ZM2.05859 135.773V132.398H3.17188V134.871H9.16016V135.773H2.05859ZM19.543 125.508V131.449H18.4297V125.508H19.543ZM10.8828 130.336C12.5234 129.785 13.5137 128.391 13.5195 126.926V125.906H14.6562V126.926C14.6504 128.344 15.6641 129.621 17.2578 130.16L16.707 131.016C15.4883 130.611 14.5684 129.785 14.0938 128.707C13.625 129.861 12.6934 130.775 11.4336 131.215L10.8828 130.336ZM12.6406 135.867V132.012H19.543V135.867H12.6406ZM13.7422 134.965H18.4531V132.902H13.7422V134.965ZM29.3867 125.496V129.75H31.0742V130.676H29.3867V135.996H28.2852V125.496H29.3867ZM21.1484 128.051V127.137H23.7383V125.637H24.8516V127.137H27.3711V128.051H21.1484ZM21.6875 131.262C21.6875 129.832 22.7891 128.824 24.3008 128.824C25.8066 128.824 26.9082 129.832 26.9141 131.262C26.9082 132.703 25.8066 133.705 24.3008 133.711C22.7891 133.705 21.6875 132.703 21.6875 131.262ZM22.7539 131.262C22.748 132.176 23.4043 132.785 24.3008 132.773C25.1914 132.785 25.8418 132.176 25.8477 131.262C25.8418 130.365 25.1914 129.744 24.3008 129.738C23.4043 129.744 22.748 130.365 22.7539 131.262ZM40.0742 126.504V127.535C40.0684 128.83 40.0684 130.283 39.6758 132.434L38.5508 132.316C38.9551 130.283 38.9551 128.795 38.9609 127.535V127.406H32.5859V126.504H40.0742ZM31.5781 134.578V133.652H35.2227V129.949H36.3242V133.652H41.1523V134.578H31.5781ZM47.8555 125.848C49.4375 125.859 50.6035 126.826 50.6094 128.203C50.6035 129.586 49.4375 130.547 47.8555 130.547C46.2559 130.547 45.0957 129.586 45.0898 128.203C45.0957 126.826 46.2559 125.859 47.8555 125.848ZM46.1797 128.203C46.1738 129.07 46.8887 129.645 47.8555 129.645C48.8164 129.645 49.5312 129.07 49.5312 128.203C49.5312 127.348 48.8164 126.773 47.8555 126.785C46.8887 126.773 46.1738 127.348 46.1797 128.203ZM46.6836 132.211V131.32H53.5859V133.969H47.7969V134.977H53.9375V135.867H46.7188V133.137H52.4844V132.211H46.6836ZM52.4727 130.84V125.496H53.5859V130.84H52.4727ZM63.5 125.461V127.922H65.0352V128.836H63.5V131.238H62.3867V125.461H63.5ZM55.2617 127.266V126.387H57.8398V125.402H58.9531V126.387H61.5195V127.266H55.2617ZM55.8359 129.387C55.8301 128.326 56.8496 127.664 58.3906 127.664C59.9316 127.664 60.9336 128.326 60.9336 129.387C60.9336 130.453 59.9316 131.104 58.3906 131.098C56.8496 131.104 55.8301 130.453 55.8359 129.387ZM56.7148 132.562V131.73H63.5V134.168H57.8281V135.047H63.8633V135.891H56.7383V133.383H62.3984V132.562H56.7148ZM56.9141 129.387C56.9023 129.955 57.4824 130.289 58.3906 130.289C59.293 130.289 59.8789 129.955 59.8906 129.387C59.8789 128.818 59.293 128.467 58.3906 128.461C57.4824 128.467 56.9023 128.818 56.9141 129.387ZM73.9297 126.422C73.9238 127.816 75.6289 129.123 77.6914 129.398L77.2578 130.312C75.541 130.037 74.0352 129.146 73.3496 127.91C72.6641 129.146 71.1582 130.037 69.4531 130.312L69.0078 129.398C71.0645 129.123 72.7637 127.834 72.7695 126.422V125.848H73.9297V126.422ZM68.5508 132.258V131.344H78.125V132.258H73.8594V135.996H72.7695V132.258H68.5508ZM85.4961 132.434C85.4961 133.336 85.9414 134.291 86.8965 134.859C87.8574 134.244 88.332 133.242 88.332 132.434V131.93H89.4219V132.434C89.416 133.523 90.1367 134.578 91.5078 135.023L90.957 135.844C89.9199 135.486 89.2109 134.783 88.8477 133.928C88.5137 134.771 87.8867 135.539 86.9258 135.938C85.918 135.557 85.2793 134.812 84.957 133.957C84.5762 134.783 83.8848 135.48 82.8945 135.844L82.332 135.023C83.6797 134.543 84.4121 133.447 84.418 132.434V131.93H85.4961V132.434ZM82.0625 128.566C82.0684 127.096 83.252 126.088 84.8633 126.082C86.4688 126.088 87.6523 127.096 87.6523 128.566C87.6523 130.02 86.4688 131.027 84.8633 131.027C83.252 131.027 82.0684 130.02 82.0625 128.566ZM83.1523 128.566C83.1465 129.48 83.8672 130.102 84.8633 130.102C85.8477 130.102 86.5625 129.48 86.5625 128.566C86.5625 127.646 85.8477 127.025 84.8633 127.031C83.8672 127.025 83.1465 127.646 83.1523 128.566ZM89.4453 131.484V125.508H90.5586V131.484H89.4453ZM100.719 128.566V129.457H93.4883V125.871H94.5898V128.566H100.719ZM92.2109 131.672V130.781H101.82V131.672H92.2109ZM93.4062 135.75V132.668H94.5195V134.836H100.789V135.75H93.4062ZM113.773 125.496V128.602H115.297V129.527H113.773V133.125H112.648V125.496H113.773ZM105.512 131.086C107.973 130.348 109.496 128.947 109.713 127.219H105.957V126.293H110.926C110.926 129.047 109.051 131.045 105.98 131.977L105.512 131.086ZM107.105 135.773V132.34H108.23V134.871H114.207V135.773H107.105ZM124.145 125.484V128.531H125.68V129.457H124.145V133.09H123.031V125.484H124.145ZM116.363 131.273V126.387H121.051V127.289H117.465V130.348C119.51 130.354 120.658 130.289 121.977 130.02L122.105 130.922C120.688 131.203 119.445 131.273 117.195 131.273H116.363ZM117.488 135.773V132.305H118.602V134.871H124.59V135.773H117.488ZM134.516 125.508V128.883H136.039V129.809H134.516V133.359H133.402V125.508H134.516ZM126.277 127.629V126.727H128.855V125.496H129.969V126.727H132.535V127.629H126.277ZM126.852 130.113C126.846 128.912 127.883 128.127 129.406 128.133C130.912 128.127 131.949 128.912 131.949 130.113C131.949 131.303 130.912 132.076 129.406 132.082C127.883 132.076 126.846 131.303 126.852 130.113ZM127.859 135.773V132.738H128.973V134.871H134.961V135.773H127.859ZM127.93 130.113C127.918 130.799 128.516 131.221 129.406 131.215C130.297 131.221 130.895 130.799 130.906 130.113C130.895 129.422 130.297 128.994 129.406 128.988C128.516 128.994 127.918 129.422 127.93 130.113ZM144.43 132.035C146.592 132.035 147.91 132.762 147.91 134.004C147.91 135.264 146.592 135.99 144.43 135.996C142.244 135.99 140.902 135.264 140.902 134.004C140.902 132.762 142.244 132.035 144.43 132.035ZM139.977 131.027V126.152H141.066V127.664H143.82V126.152H144.922V131.027H139.977ZM141.066 130.137H143.82V128.543H141.066V130.137ZM142.016 134.004C142.01 134.707 142.912 135.105 144.43 135.105C145.936 135.105 146.826 134.707 146.82 134.004C146.826 133.307 145.936 132.914 144.43 132.914C142.912 132.914 142.01 133.307 142.016 134.004ZM146.703 131.766V125.496H147.816V128.062H149.34V129.012H147.816V131.766H146.703ZM151.555 126.035V127.57H154.18V126.035H155.281V128.016H157.578V125.496H158.691V131.227H157.578V128.941H155.281V130.875H150.441V126.035H151.555ZM151.555 129.973H154.18V128.438H151.555V129.973ZM151.848 135.844V131.719H152.949V132.902H157.578V131.719H158.68V135.844H151.848ZM152.949 134.941H157.578V133.77H152.949V134.941Z" fill="black"/>
<path d="M35.0176 93.0547C34.627 91.0527 32.9668 89.7588 30.3301 89.7832C27.6689 89.7588 25.7158 91.1016 25.7402 92.9082C25.7158 94.2754 26.8145 95.3008 29.5 95.9355L33.9922 96.8633C38.9971 97.9619 41.4385 100.281 41.4629 104.09C41.4385 109.07 37.0684 112.537 30.1348 112.537C23.3965 112.537 19.417 109.51 18.7578 104.432H25.1055C25.4717 106.702 27.2295 107.825 30.1348 107.801C33.1377 107.825 35.0908 106.604 35.1152 104.627C35.0908 103.089 33.8945 102.112 31.2578 101.551L27.0098 100.623C22.0781 99.6221 19.5146 97.0342 19.5391 93.25C19.5146 88.3428 23.7627 85.1445 30.2324 85.1445C36.5557 85.1445 40.4619 88.2451 40.9258 93.0547H35.0176ZM51.7168 112L44.1973 85.4863H50.5449L55.2324 104.139H55.4766L60.2129 85.4863H66.5117L71.2969 104.041H71.541L76.1797 85.4863H82.5273L75.0078 112H68.5137L63.5332 94.0312H63.1914L58.2109 112H51.7168ZM86.4824 112V85.4863H92.7324V112H86.4824ZM86.043 78.3086C86.043 76.4531 87.6787 74.9395 89.6562 74.9395C91.6338 74.9395 93.2695 76.4531 93.2695 78.3086C93.2695 80.1885 91.6338 81.7021 89.6562 81.7266C87.6787 81.7021 86.043 80.1885 86.043 78.3086ZM111.922 85.4863V90.2715H106.697V104.041C106.697 106.58 107.967 107.093 109.529 107.117C110.262 107.142 111.482 107.068 112.264 107.02V112.098C111.531 112.22 110.335 112.366 108.748 112.342C104.061 112.366 100.447 110.047 100.496 105.066V90.2715H96.6875V85.4863H100.496V79.1387H106.697V85.4863H111.922ZM123.543 96.4727V112H117.293V76.6484H123.396V89.9785H123.738C124.935 86.9756 127.522 85.1445 131.6 85.1445C137.093 85.1445 140.73 88.709 140.73 95.1055V112H134.529V96.082C134.505 92.4688 132.576 90.3936 129.305 90.418C125.936 90.3936 123.543 92.6152 123.543 96.4727Z" fill="black"/>
<path d="M80.4998 24.2671C84.8461 24.2671 88.3665 21.1644 88.3665 17.3337C88.3665 13.5031 84.8461 10.4004 80.4998 10.4004C76.1535 10.4004 72.6331 13.5031 72.6331 17.3337C72.6331 21.1644 76.1535 24.2671 80.4998 24.2671ZM80.4998 34.6671C75.2488 34.6671 62.7998 33.5231 62.7998 38.1337L67.7165 41.6004C67.7165 42.5537 66.7331 39.0004 70.6665 44.2004L80.4998 46.8004L94.2665 38.1337C95.3481 38.1337 95.2498 39.9537 95.2498 39.0004L99.1831 38.1337C99.1831 33.5231 85.7508 34.6671 80.4998 34.6671Z" fill="#48BAEB"/>
<path d="M93.2155 0C88.1064 0 83.5721 2.06175 80.5 5.60547C77.4279 2.06175 72.8936 0 67.7845 0C63.3346 0.00550432 59.0685 1.81515 55.922 5.03201C52.7755 8.24886 51.0054 12.6103 51 17.1596C51 35.9675 77.9086 50.9952 79.053 51.627C79.4977 51.8718 79.9949 52 80.5 52C81.0051 52 81.5023 51.8718 81.947 51.627C83.0914 50.9952 110 35.9675 110 17.1596C109.995 12.6103 108.225 8.24886 105.078 5.03201C101.931 1.81515 97.6654 0.00550432 93.2155 0ZM91.8193 37.0127C88.2775 40.0854 84.4913 42.8509 80.5 45.2805C76.5087 42.8509 72.7225 40.0854 69.1806 37.0127C63.6697 32.1794 57.1034 24.8086 57.1034 17.1596C57.1034 14.2635 58.2288 11.486 60.2318 9.43817C62.2349 7.39032 64.9517 6.23985 67.7845 6.23985C72.3112 6.23985 76.1004 8.68379 77.6746 12.6201C77.9037 13.1939 78.2948 13.685 78.798 14.0306C79.3012 14.3763 79.8938 14.5609 80.5 14.5609C81.1062 14.5609 81.6987 14.3763 82.202 14.0306C82.7052 13.685 83.0963 13.1939 83.3254 12.6201C84.8996 8.68379 88.6888 6.23985 93.2155 6.23985C96.0483 6.23985 98.7651 7.39032 100.768 9.43817C102.771 11.486 103.897 14.2635 103.897 17.1596C103.897 24.8086 97.3303 32.1794 91.8193 37.0127Z" fill="#48BAEB"/>
</svg>
