<svg width="62" height="20" viewBox="0 0 62 20" fill="none" xmlns="http://www.w3.org/2000/svg">
<path d="M9.00879 9.52734C8.81348 8.52637 7.9834 7.8916 6.66504 7.8916C5.32227 7.8916 4.3457 8.55078 4.37012 9.4541C4.3457 10.1377 4.90723 10.6504 6.25 10.9678L8.49609 11.4316C11.0107 11.9932 12.207 13.1406 12.2314 15.0449C12.207 17.5352 10.0342 19.2686 6.56738 19.2686C3.19824 19.2686 1.19629 17.7549 0.878906 15.2158H4.05273C4.24805 16.3389 5.12695 16.9004 6.56738 16.9004C8.05664 16.9004 9.05762 16.29 9.05762 15.3135C9.05762 14.5566 8.44727 14.0684 7.12891 13.7754L5.00488 13.3115C2.53906 12.8232 1.26953 11.5293 1.26953 9.625C1.26953 7.18359 3.36914 5.57227 6.61621 5.57227C9.79004 5.57227 11.7432 7.11035 11.9629 9.52734H9.00879ZM17.3584 19L13.5986 5.74316H16.7725L19.1162 15.0693H19.2383L21.6064 5.74316H24.7559L27.1484 15.0205H27.2705L29.5898 5.74316H32.7637L29.0039 19H25.7568L23.2666 10.0156H23.0957L20.6055 19H17.3584ZM34.7412 19V5.74316H37.8662V19H34.7412ZM36.3281 3.86328C35.3516 3.86328 34.5215 3.10645 34.5215 2.1543C34.5215 1.22656 35.3516 0.469727 36.3281 0.469727C37.3291 0.469727 38.1348 1.22656 38.1348 2.1543C38.1348 3.10645 37.3291 3.86328 36.3281 3.86328ZM47.4609 5.74316V8.13574H44.8486V15.0205C44.8486 16.29 45.4834 16.5586 46.2646 16.5586C46.6309 16.5586 47.2412 16.5342 47.6318 16.5098V19.0488C47.2656 19.1221 46.6553 19.1709 45.874 19.1709C43.5303 19.1709 41.7236 18.0234 41.748 15.5332V8.13574H39.8438V5.74316H41.748V2.56934H44.8486V5.74316H47.4609ZM53.2715 11.2363V19H50.1465V1.32422H53.1982V7.98926H53.3691C53.9795 6.5 55.249 5.57227 57.2998 5.57227C60.0586 5.57227 61.8652 7.35449 61.8652 10.5527V19H58.7646V11.041C58.7646 9.23438 57.7881 8.20898 56.1523 8.20898C54.4678 8.20898 53.2715 9.30762 53.2715 11.2363Z" fill="#46BAEB"/>
</svg>
